<svg width="20" height="41" viewBox="0 0 25 46" fill="none" xmlns="http://www.w3.org/2000/svg">
<path d="M20.4436 0H4.55635C2.03837 0 0 2.03646 0 4.55208V41.4479C0 43.9635 2.03837 46 4.55635 46H20.4436C22.9616 46 25 43.9635 25 41.4479V4.55208C25 2.03646 22.9616 0 20.4436 0ZM22.0624 36.9557H2.93765V8.625H22.0624V36.9557ZM12.53 43.2448C11.0911 43.2448 10.012 42.1667 10.012 40.7891C10.012 39.3516 11.0911 38.2734 12.53 38.2734C13.9089 38.2734 14.988 39.3516 14.988 40.7891C14.988 42.1667 13.9089 43.2448 12.53 43.2448Z" fill="#00AA51"/>
</svg>
