<svg width="45" height="42" viewBox="0 0 60 56" fill="none" xmlns="http://www.w3.org/2000/svg">
<path d="M57.696 27.6736C58.4906 26.801 59.2588 25.9092 60 24.999C59.689 22.7443 59.348 20.4661 58.974 18.1724L58.845 18.0675L59.316 17.4432L58.136 16.4733C52.303 11.6824 46.472 6.89253 40.639 2.10352L39.062 0.807877L37.864 2.39758C35.8228 5.09353 33.6174 7.68461 31.258 10.1588C31.387 9.66298 31.528 9.15178 31.682 8.62067C32.313 6.45372 31.574 4.98254 30.842 4.13114C29.479 2.54325 26.899 1.66742 23.574 1.66742C14.146 1.66742 0.506 8.37547 0.506 20.5041C0.506 22.1689 1.732 23.3324 3.486 23.3324C4.781 23.3324 6.277 22.6774 7.957 21.379C8.115 21.8703 8.353 22.3344 8.701 22.7289C9.367 23.4853 10.349 23.9024 11.467 23.9024C11.718 23.9024 11.976 23.8825 12.241 23.8409C12.36 24.363 12.578 24.8796 12.926 25.3302C9.67419 27.4508 6.29428 29.4057 2.802 31.1859L0.583 32.3124L2.354 33.7673C1.992 33.9699 1.629 34.1735 1.268 34.3708C0.868 36.0428 0.445 37.6931 0 39.3136C6.405 44.5758 12.809 49.8335 19.213 55.0948C24.7887 52.3504 30.1829 49.3142 35.368 46.0017C35.37 46.0044 35.37 46.0081 35.372 46.0099C35.854 46.7672 36.64 47.2847 37.715 47.5607C35.854 49.505 35.185 51.1707 35.725 52.5306C36.156 53.6137 37.265 54.2606 38.693 54.2606C52.179 54.2606 59.637 41.9935 59.637 33.5139C59.637 31.4917 59.192 29.7491 58.35 28.4761C58.1585 28.1917 57.9397 27.9231 57.696 27.6736ZM30.526 13.4214C33.747 10.2321 36.724 6.87082 39.392 3.3295C45.225 8.11942 51.057 12.9084 56.889 17.7002C54.4683 20.898 51.8236 23.9522 48.971 26.8439C48.047 27.0203 47.174 27.1732 46.374 27.2908C48.872 24.8552 51.239 22.3263 53.412 19.6762L52.829 19.1976C52.184 18.6683 52.091 17.721 52.602 17.0749C52.756 16.8777 52.911 16.6832 53.065 16.4877C49.176 13.2957 45.288 10.1009 41.402 6.90882L40.939 7.49602C40.427 8.14023 39.474 8.2298 38.832 7.7005L38.248 7.22368C35.768 10.2475 33.049 13.1229 30.151 15.8662C30.238 15.1297 30.359 14.3181 30.526 13.4214ZM37.571 22.291C35.53 20.6136 32.672 20.2344 30.115 20.9963C30.038 20.5412 29.927 19.5866 29.978 18.0847C33.0286 15.3091 35.881 12.3608 38.518 9.25763C39.511 9.7236 40.692 9.61955 41.564 8.97534L51.042 16.7592C50.596 17.7526 50.704 18.918 51.348 19.7974C49.048 22.5145 46.552 25.1067 43.91 27.5921C42.8019 27.7038 41.688 27.7627 40.573 27.7686C40.254 27.7686 39.972 27.7613 39.709 27.7514C40.068 25.8043 39.331 23.736 37.571 22.291ZM11.682 22.2213C11.612 22.2268 11.534 22.2403 11.468 22.2403C9.233 22.2403 9.452 19.3423 9.689 17.939C10.922 16.8279 12.082 15.668 13.293 14.5714C14.571 13.3934 15.914 12.2787 17.425 11.3902C18.935 10.5089 20.65 9.88374 22.509 9.72812C20.652 9.5544 18.711 9.99232 17.056 10.832C15.38 11.6562 13.949 12.798 12.633 13.9905C11.326 15.1957 10.127 16.4697 8.919 17.7228C7.702 18.9596 6.498 20.201 5.029 21.2234C4.412 21.5292 3.894 21.6694 3.485 21.6694C2.74 21.6694 2.352 21.2152 2.352 20.5032C2.352 9.15992 15.379 3.3286 23.572 3.3286C27.872 3.3286 30.842 4.9373 29.89 8.19994C27.132 17.6802 28.4 21.769 28.4 21.769C27.32 23.5921 25.238 24.1847 25.238 24.1847C24.1034 23.9079 22.9331 23.7695 21.758 23.7731C19.404 23.7731 17.739 24.3014 17.739 24.3014C16.859 24.752 16.179 24.9339 15.654 24.9339C13.754 24.9339 13.898 22.538 14.004 21.7083C14.255 21.6016 14.499 21.4858 14.734 21.3609C15.676 20.8705 16.508 20.2553 17.32 19.6527C18.122 19.0392 18.902 18.4267 19.728 17.8883C20.557 17.3581 21.449 16.9166 22.507 16.7393C22.2395 16.6962 21.9675 16.6801 21.696 16.6913C20.88 16.7248 20.061 16.9854 19.348 17.3355C18.377 17.7997 17.538 18.4131 16.724 19.0166C15.921 19.6346 15.143 20.2534 14.333 20.8226C13.526 21.3835 12.675 21.8812 11.682 22.2213ZM31.925 40.7766C28.4879 43.0368 24.9096 45.1159 21.208 47.0033C15.376 42.2116 9.545 37.4253 3.712 32.6327C7.42189 30.7415 11.0079 28.658 14.452 26.3924C14.827 26.5182 15.228 26.5978 15.655 26.5978C16.093 26.5978 16.552 26.529 17.036 26.3951C14.2708 28.2861 11.4061 30.0549 8.452 31.6953C8.646 31.8555 8.842 32.0156 9.035 32.1767C9.677 32.7042 9.57 33.485 8.786 33.9039C8.546 34.0306 8.308 34.1581 8.07 34.283L19.734 43.8637C19.974 43.7371 20.211 43.6122 20.45 43.4819C21.235 43.0639 22.39 43.1417 23.033 43.6692L23.616 44.1505C26.6596 42.4575 29.6083 40.6285 32.451 38.6703C32.071 39.433 31.897 40.1369 31.925 40.7766ZM33.118 36.4382C30.1194 38.5901 26.997 40.597 23.764 42.4505C22.692 41.923 21.272 41.8352 20.067 42.2026L10.588 34.4187C11.37 33.703 11.497 32.7313 10.932 31.9152C14.3894 29.9361 17.721 27.7826 20.911 25.465C21.181 25.4478 21.461 25.436 21.759 25.436C22.7692 25.4329 23.7753 25.5513 24.751 25.788L24.922 25.8305C24.43 27.7034 25.019 29.6777 26.798 31.1389C28.432 32.4798 30.719 33.095 32.937 32.9394C33.258 34.2667 33.24 35.4954 33.118 36.4382ZM38.692 52.5985C37.463 52.5985 36.937 51.7516 37.905 50.1755C39.04 48.8627 40.415 47.7823 41.784 46.6939C43.177 45.6082 44.593 44.5278 45.934 43.3534C47.258 42.17 48.529 40.8843 49.445 39.376C50.378 37.8876 50.866 36.1414 50.673 34.4712C50.499 36.1432 49.806 37.6868 48.825 39.0458C47.837 40.4038 46.597 41.6117 45.288 42.7617C44.069 43.8493 42.78 44.8925 41.546 46.0008C41.07 46.066 40.442 46.1293 39.796 46.1293C38.263 46.1293 36.645 45.7683 36.776 44.2256C37.154 43.3245 37.711 42.5536 38.337 41.8216C38.97 41.0933 39.658 40.3939 40.345 39.6719C41.017 38.939 41.699 38.1844 42.214 37.3122C42.732 36.4572 43.075 35.433 42.877 34.4712C42.681 35.423 42.19 36.2256 41.601 36.9711C41.003 37.7139 40.322 38.416 39.638 39.1381C38.969 39.8691 38.284 40.6174 37.74 41.4643C37.5998 41.677 37.4713 41.896 37.355 42.1202C37.0489 42.1514 36.7411 42.1677 36.433 42.1691C34.871 42.1691 32.603 41.7176 34.471 38.7599C34.471 38.7599 35.701 35.623 34.601 32.0156C34.601 32.0156 35.259 30.1427 37.285 29.171C37.285 29.171 38.328 29.4325 40.573 29.4325C43.015 29.4325 46.88 29.123 52.373 27.8301C52.7934 27.7275 53.2266 27.6737 53.662 27.6699C62.45 27.6699 57.087 52.5985 38.692 52.5985Z" fill="#964B8E"/>
</svg>
