<svg width="47" height="40" viewBox="0 0 52 45" fill="none" xmlns="http://www.w3.org/2000/svg">
<path d="M1.81857 17.9538C1.07104 18.7784 0.716183 19.838 0.832067 20.8993C0.947951 21.9607 1.52508 22.9369 2.4365 23.6133L29.9285 44.0148C30.8399 44.6912 32.0109 45.0122 33.184 44.9074C34.357 44.8025 35.436 44.2804 36.1835 43.4557L50.2764 27.9093C51.0239 27.0847 51.3788 26.0251 51.2629 24.9638C51.147 23.9024 50.5699 22.9262 49.6585 22.2498L22.1665 1.8483C21.2551 1.17194 20.084 0.850876 18.911 0.955726C17.7379 1.06058 16.659 1.58275 15.9114 2.40739L1.81857 17.9538ZM5.25507 20.504L19.3479 4.95758L29.6574 12.6082L15.5646 28.1546L5.25507 20.504ZM26.0475 22.9316C27.5425 21.2823 29.7005 20.2379 32.0466 20.0282C34.3927 19.8185 36.7348 20.4607 38.5576 21.8134C40.3805 23.1661 41.5347 25.1186 41.7665 27.2413C41.9982 29.364 41.2885 31.4831 39.7935 33.1323C38.2984 34.7816 36.1405 35.8259 33.7944 36.0356C31.4483 36.2453 29.1062 35.6032 27.2833 34.2505C25.4605 32.8978 24.3062 30.9453 24.0745 28.8226C23.8427 26.6999 24.5524 24.5808 26.0475 22.9316V22.9316ZM29.484 25.4817C28.7365 26.3064 28.3816 27.3659 28.4975 28.4273C28.6134 29.4886 29.1905 30.4649 30.1019 31.1412C31.0133 31.8176 32.1844 32.1386 33.3574 32.0338C34.5305 31.9289 35.6094 31.4068 36.357 30.5821C37.1045 29.7575 37.4594 28.698 37.3435 27.6366C37.2276 26.5752 36.6505 25.599 35.7391 24.9227C34.8276 24.2463 33.6566 23.9252 32.4835 24.0301C31.3105 24.1349 30.2315 24.6571 29.484 25.4817Z" fill="#964B8E"/>
</svg>
