<svg width="45" height="42" viewBox="0 0 65 59" fill="none" xmlns="http://www.w3.org/2000/svg">
<path d="M44.601 4.62069C45.0732 4.4649 45.588 4.50309 46.0321 4.72686C46.4762 4.95063 46.8132 5.34165 46.969 5.8139L55.78 32.5231L13.0453 46.6208L4.23427 19.9116C4.07848 19.4393 4.11667 18.9245 4.34044 18.4804C4.56421 18.0364 4.95523 17.6993 5.42748 17.5436L44.601 4.62069ZM4.25267 13.9823C2.83593 14.4497 1.66287 15.4607 0.991563 16.793C0.320252 18.1253 0.205677 19.6696 0.673044 21.0864L10.6589 51.3568L60.5161 34.9095L50.5302 4.63909C50.0628 3.22235 49.0518 2.04929 47.7196 1.37798C46.3873 0.706669 44.8429 0.592094 43.4262 1.05946L4.25267 13.9823ZM7.68507 54.3122L64.6647 35.5153C65.1321 36.9321 65.0175 38.4764 64.3462 39.8087C63.6749 41.141 62.5018 42.152 61.0851 42.6194L14.7891 57.8918C13.3724 58.3592 11.828 58.2446 10.4957 57.5733C9.16346 56.902 8.15244 55.729 7.68507 54.3122V54.3122Z" fill="#00AA51"/>
</svg>
